<svg width="32" height="32" viewBox="0 0 32 32" fill="none" xmlns="http://www.w3.org/2000/svg">
<path d="M3.61289 16.5V15.5C3.61289 14.9477 4.0606 14.5 4.61289 14.5H6.19353M3.61289 16.5V27.5M3.61289 16.5H2.0645M3.61289 27.5V28.5C3.61289 29.0523 4.0606 29.5 4.61289 29.5H6.74192C7.29421 29.5 7.74192 29.0523 7.74192 28.5V15.5C7.74192 14.9477 7.29421 14.5 6.74192 14.5H6.19353M3.61289 27.5H1.51611C0.963829 27.5 0.516113 27.0523 0.516113 26.5V17.5C0.516113 16.9477 0.963829 16.5 1.51611 16.5H2.0645M6.19353 14.5C6.19353 12 8.25805 5.5 16 5.5C23.7419 5.5 25.8064 12 25.8064 14.5M28.3871 16.5V15.5C28.3871 14.9477 27.9394 14.5 27.3871 14.5H25.8064M28.3871 16.5V27.5M28.3871 16.5H29.9355M28.3871 27.5V28.5C28.3871 29.0523 27.9394 29.5 27.3871 29.5H25.2581C24.7058 29.5 24.2581 29.0523 24.2581 28.5V15.5C24.2581 14.9477 24.7058 14.5 25.2581 14.5H25.8064M28.3871 27.5H30.4839C31.0361 27.5 31.4839 27.0523 31.4839 26.5V17.5C31.4839 16.9477 31.0361 16.5 30.4839 16.5H29.9355M29.9355 16.5C29.9355 13 28.3871 2 16 2C3.61289 2 2.0645 14 2.0645 16.5" stroke="black"/>
</svg>
