<svg width="32" height="32" viewBox="0 0 32 32" fill="none" xmlns="http://www.w3.org/2000/svg">
<path fill-rule="evenodd" clip-rule="evenodd" d="M16 1.5C13.8392 1.5 12.033 3.02352 11.5992 5.05535C11.5343 5.35952 11.5 5.67548 11.5 6C11.5 8.48528 13.5147 10.5 16 10.5C16.411 10.5 16.8089 10.445 17.1867 10.342C16.1755 9.7284 15.5 8.61727 15.5 7.34786C15.5 5.41487 17.067 3.84786 19 3.84786C19.3681 3.84786 19.7425 3.89489 20.1004 3.99505C19.3624 2.50994 17.7929 1.5 16 1.5ZM21.3905 4.62029C20.7903 2.21542 18.567 0.5 16 0.5C13.4504 0.5 11.3069 2.23442 10.6832 4.58744C6.91729 6.20257 4.03409 9.48102 2.95817 13.5003C1.3206 13.5227 0 14.8571 0 16.5C0 18.0655 1.19906 19.3509 2.72886 19.4879C3.89673 25.7554 9.39385 30.5 16 30.5C22.6061 30.5 28.1033 25.7554 29.2711 19.4879C30.8009 19.3509 32 18.0655 32 16.5C32 14.8571 30.6793 13.5226 29.0417 13.5003C27.9739 9.51948 25.1 6.25246 21.3905 4.62029ZM29.2723 14.5184C29.4219 15.3231 29.5 16.1526 29.5 17C29.5 17.4915 29.4737 17.9771 29.4224 18.4553C30.3241 18.2614 31 17.4596 31 16.5C31 15.4878 30.2481 14.6512 29.2723 14.5184ZM2.57757 18.4553C2.52629 17.9771 2.5 17.4915 2.5 17C2.5 16.1526 2.57813 15.3231 2.72769 14.5184C1.75194 14.6512 1 15.4878 1 16.5C1 17.4596 1.67587 18.2614 2.57757 18.4553ZM10.5048 5.76944C7.18443 7.39728 4.69196 10.4545 3.82921 14.1373C3.61396 15.0561 3.5 16.0144 3.5 17C3.5 17.653 3.55002 18.2939 3.64636 18.9193C4.56946 24.9116 9.74935 29.5 16 29.5C22.2507 29.5 27.4305 24.9116 28.3536 18.9193C28.45 18.2939 28.5 17.653 28.5 17C28.5 16.0144 28.386 15.0561 28.1708 14.1373C27.2499 10.2062 24.4297 6.96839 20.7659 5.44053C20.7206 5.42164 20.6784 5.39618 20.6405 5.36497C20.2332 5.02949 19.6392 4.84786 19 4.84786C17.6193 4.84786 16.5 5.96715 16.5 7.34786C16.5 8.59577 17.4148 9.63094 18.6103 9.81775C18.819 9.85035 18.9847 10.0106 19.0243 10.218C19.0639 10.4255 18.9688 10.6355 18.7868 10.7426C17.9692 11.224 17.0161 11.5 16 11.5C12.9624 11.5 10.5 9.03757 10.5 6C10.5 5.92278 10.5016 5.84592 10.5048 5.76944ZM11 16.5C10.1716 16.5 9.5 17.1716 9.5 18C9.5 18.2761 9.27614 18.5 9 18.5C8.72386 18.5 8.5 18.2761 8.5 18C8.5 16.6193 9.61929 15.5 11 15.5C12.3807 15.5 13.5 16.6193 13.5 18C13.5 18.2761 13.2761 18.5 13 18.5C12.7239 18.5 12.5 18.2761 12.5 18C12.5 17.1716 11.8284 16.5 11 16.5ZM21 16.5C20.1716 16.5 19.5 17.1716 19.5 18C19.5 18.2761 19.2761 18.5 19 18.5C18.7239 18.5 18.5 18.2761 18.5 18C18.5 16.6193 19.6193 15.5 21 15.5C22.3807 15.5 23.5 16.6193 23.5 18C23.5 18.2761 23.2761 18.5 23 18.5C22.7239 18.5 22.5 18.2761 22.5 18C22.5 17.1716 21.8284 16.5 21 16.5ZM14 21.5C14.2761 21.5 14.5 21.7239 14.5 22C14.5 22.8284 15.1716 23.5 16 23.5C16.8284 23.5 17.5 22.8284 17.5 22C17.5 21.7239 17.7239 21.5 18 21.5C18.2761 21.5 18.5 21.7239 18.5 22C18.5 23.3807 17.3807 24.5 16 24.5C14.6193 24.5 13.5 23.3807 13.5 22C13.5 21.7239 13.7239 21.5 14 21.5Z" fill="black"/>
</svg>
