<svg width="20" height="20" viewBox="0 0 20 20" fill="none" xmlns="http://www.w3.org/2000/svg">
<g clip-path="url(#clip0)">
<path fill-rule="evenodd" clip-rule="evenodd" d="M17.1708 0.524127C17.2265 0.687485 17.1392 0.865057 16.9758 0.920747L15.6008 1.3895C15.4375 1.44519 15.2599 1.35791 15.2042 1.19455C15.1485 1.03119 15.2358 0.853619 15.3992 0.797929L16.7742 0.329179C16.9375 0.273489 17.1151 0.36077 17.1708 0.524127ZM5.84619 1.62119C5.47952 1.98138 5.32369 2.38082 5.27661 2.52538C5.27391 2.5337 5.27083 2.54849 5.27083 2.57524V4.99996H9.22917V4.06246H11.6667C11.8393 4.06246 11.9792 3.92255 11.9792 3.74996V1.24996C11.9792 1.0769 11.8395 0.937463 11.6674 0.937463H7.70833C6.78158 0.937463 6.20515 1.26857 5.84619 1.62119ZM5.4082 1.17533C5.88005 0.711812 6.61224 0.312463 7.70833 0.312463H11.6674C12.1856 0.312463 12.6042 0.732668 12.6042 1.24996H14.0625C14.2696 1.24996 14.4375 1.41786 14.4375 1.62496V3.37496C14.4375 3.58207 14.2696 3.74996 14.0625 3.74996H12.6042C12.6042 4.22165 12.2558 4.61197 11.8024 4.67772L12.5888 7.09063C12.6338 7.22867 12.5778 7.37953 12.4536 7.45475C12.3294 7.52998 12.1697 7.50975 12.0682 7.40594L9.85417 5.14156V5.24996C9.85417 5.45707 9.68627 5.62496 9.47917 5.62496H8.9375V6.98286C8.9375 7.04932 8.95869 7.11406 8.998 7.16766L10.5182 9.24065C11.2779 10.2766 11.6875 11.5278 11.6875 12.8125V18.75C11.6875 19.2677 11.2678 19.6875 10.75 19.6875H3.75C3.23223 19.6875 2.8125 19.2677 2.8125 18.75V12.8125C2.8125 11.5278 3.22211 10.2766 3.98181 9.24065L5.502 7.16766C5.54131 7.11406 5.5625 7.04932 5.5625 6.98286V5.62496H5.02708C4.81652 5.62496 4.64583 5.45427 4.64583 5.24371V2.57524C4.64583 2.50198 4.65407 2.41863 4.68233 2.33185C4.74687 2.13366 4.94405 1.63129 5.4082 1.17533ZM6.1875 5.62496V6.98286C6.1875 7.18226 6.12392 7.37646 6.006 7.53726L4.48581 9.61026C3.86649 10.4548 3.50669 11.4589 3.44652 12.5H11.0535C10.9933 11.4589 10.6335 10.4548 10.0142 9.61026L8.494 7.53726C8.37608 7.37646 8.3125 7.18226 8.3125 6.98286V5.62496H6.1875ZM11.0625 13.125H3.4375V16.25H11.0625V13.125ZM11.0625 16.875H3.4375V18.75C3.4375 18.9226 3.57741 19.0625 3.75 19.0625H10.75C10.9226 19.0625 11.0625 18.9226 11.0625 18.75V16.875ZM10.2843 4.68746H11.1482L11.5801 6.01275L10.2843 4.68746ZM12.6042 3.12496H13.8125V1.87496H12.6042V3.12496ZM15.1875 2.49996C15.1875 2.32737 15.3274 2.18746 15.5 2.18746H16.875C17.0476 2.18746 17.1875 2.32737 17.1875 2.49996C17.1875 2.67255 17.0476 2.81246 16.875 2.81246H15.5C15.3274 2.81246 15.1875 2.67255 15.1875 2.49996ZM15.2042 3.80538C15.2599 3.64202 15.4375 3.55474 15.6008 3.61043L16.9758 4.07918C17.1392 4.13487 17.2265 4.31244 17.1708 4.4758C17.1151 4.63916 16.9375 4.72644 16.7742 4.67075L15.3992 4.202C15.2358 4.14631 15.1485 3.96873 15.2042 3.80538Z" fill="black"/>
</g>
<defs>
<clipPath id="clip0">
<rect width="20" height="20" fill="white"/>
</clipPath>
</defs>
</svg>
