<svg width="32" height="32" viewBox="0 0 32 32" fill="none" xmlns="http://www.w3.org/2000/svg">
<path d="M14.5782 7.00127C14.224 6.0538 15.0204 4.94324 16.0357 5.00226C17.0253 4.98938 17.7638 6.08063 17.4311 7.00342C19.6142 7.0002 21.7973 7.00234 23.9815 7.00234C24.8777 7.0002 25.7825 7.33819 26.419 7.97771C27.1145 8.6258 27.5181 9.57864 27.4966 10.5293C27.4934 11.186 27.4955 11.8438 27.4945 12.5004C28.6408 12.5026 29.7871 12.4994 30.9334 12.5015C31.4475 12.4779 31.9434 12.8835 31.9906 13.4007C32.0732 14.2097 31.6031 15.0252 30.8947 15.4104C29.7635 16.0446 28.6257 16.668 27.4945 17.3011C27.4955 19.3741 27.4934 21.4461 27.4955 23.5181C27.5074 24.6447 26.916 25.7575 25.98 26.3841C25.3983 26.7929 24.6845 26.9989 23.9751 27C18.6407 26.9989 13.3052 27.0011 7.96976 26.9989C6.64422 27.0011 5.3616 26.1684 4.82172 24.9591C4.59203 24.4784 4.49329 23.943 4.49758 23.4119C4.5008 21.3699 4.49866 19.3291 4.49866 17.2882C3.4672 16.7281 2.44755 16.1476 1.41824 15.5843C0.603588 15.2312 -0.0457689 14.4276 0.00253038 13.5091C0.00360369 12.979 0.48123 12.5058 1.01037 12.5037C2.17278 12.4961 3.33625 12.5026 4.49866 12.5015C4.55017 11.4596 4.35805 10.3791 4.68756 9.36833C5.13728 7.99702 6.51542 6.99805 7.96118 7.00234C10.1668 7.00127 12.3725 7.00234 14.5782 7.00127ZM15.8168 6.04307C15.5227 6.13535 15.4078 6.53666 15.5849 6.78238C15.79 7.11286 16.3534 7.05063 16.4704 6.674C16.6497 6.29201 16.1935 5.851 15.8168 6.04307ZM5.91758 9.12261C5.52904 9.66555 5.46679 10.3512 5.5065 10.9993C12.5045 10.9993 19.5026 10.9972 26.5017 10.9993C26.5253 10.4177 26.4931 9.80397 26.1882 9.29C25.7739 8.52709 24.9357 8.01634 24.0663 8.00775C18.7019 8.00668 13.3363 8.00882 7.97191 8.00668C7.15726 7.99917 6.35549 8.43695 5.91758 9.12261ZM5.50543 12.0047C5.5065 15.8847 5.50221 19.7658 5.50865 23.6458C5.54407 24.8776 6.6367 25.9613 7.86887 25.9914C13.2709 25.9967 18.6729 25.9935 24.0749 25.9935C25.3382 25.9935 26.4737 24.8797 26.4984 23.6168C26.507 19.7454 26.4995 15.874 26.5017 12.0026C19.5036 12.0079 12.5045 12.0036 5.50543 12.0047ZM0.983542 13.5134C1.00823 13.9061 1.18425 14.3085 1.54167 14.5048C2.52483 15.0596 3.52194 15.5939 4.5008 16.1572C4.49651 15.2731 4.49973 14.3889 4.49866 13.5048C3.32659 13.5134 2.15453 13.4973 0.983542 13.5134ZM27.4966 13.508C27.4923 14.39 27.4966 15.272 27.4945 16.154C28.4744 15.6132 29.4522 15.0681 30.43 14.5252C30.8014 14.3299 30.9989 13.9168 31.0107 13.5091C29.8397 13.5048 28.6687 13.5069 27.4966 13.508Z" fill="black"/>
</svg>
