<svg width="48" height="48" viewBox="0 0 48 48" fill="none" xmlns="http://www.w3.org/2000/svg">
<g clip-path="url(#clip0_4665_2657)">
<path d="M32 0H16C7.16344 0 0 7.16344 0 16V32C0 40.8366 7.16344 48 16 48H32C40.8366 48 48 40.8366 48 32V16C48 7.16344 40.8366 0 32 0Z" fill="#43B02A"/>
<path d="M26.6278 24.2002C26.6157 24.4564 26.6329 25.866 26.2096 25.8655C25.81 25.8655 25.823 24.9438 25.7817 24.1993C25.7478 23.5853 26.6579 23.5607 26.6278 24.2002ZM30.3769 29.4054C30.758 29.4054 31.0439 29.0577 30.9692 28.6846C30.9692 28.6846 29.936 23.4488 29.5777 21.7065C28.8333 18.0901 23.6244 18.1077 22.88 21.7C22.5273 23.4015 21.8223 26.9562 21.4751 28.6753C21.3995 29.0484 21.6849 29.397 22.0655 29.3975L25.0266 29.4003C25.3273 29.4003 25.5812 29.1807 25.6243 28.8832L26.0193 27.0792C26.0365 26.9613 26.1302 26.9024 26.2235 26.9024C26.3173 26.9024 26.4106 26.9613 26.4273 27.0796L26.819 28.8846C26.8612 29.1821 27.1156 29.4026 27.4158 29.4026L30.3769 29.4054V29.4054Z" fill="#FFFF00" stroke="#662D91" stroke-width="0.181935" stroke-miterlimit="10"/>
<path d="M3.71243 29.3795C4.90057 29.3809 5.67566 29.3897 6.19454 29.3902C6.86845 29.3906 7.11814 29.185 7.11861 28.5232C7.11907 28.027 7.11814 27.5351 7.12278 26.346C7.12557 25.7273 7.12418 25.181 7.33442 25.181C7.49222 25.181 7.605 25.3458 7.71825 25.7802C7.83103 26.2146 8.48962 28.5273 8.54624 28.8109C8.6024 29.094 8.65902 29.3841 9.07441 29.3846C9.4898 29.3846 11.6048 29.3869 12.0202 29.3874C12.4356 29.3874 12.7382 29.0602 12.4365 28.3236C12.1353 27.587 10.6088 24.3052 10.6088 24.3052C10.6088 24.3052 12.1413 21.0267 12.4444 20.2906C12.747 19.5545 12.4453 19.2264 12.0299 19.2259C11.6145 19.2259 9.49955 19.2236 9.08416 19.2231C8.66877 19.2231 8.61168 19.5127 8.55506 19.7958C8.49797 20.079 7.83474 22.8312 7.72057 23.2656C7.60686 23.6996 7.49362 23.8643 7.33582 23.8643C7.17801 23.8643 7.12557 23.7246 7.12603 23.1055L7.12928 19.9346C7.12928 19.5406 6.81043 19.2208 6.41686 19.2208L3.72264 19.218C3.3286 19.218 3.00882 19.5369 3.00882 19.9304L3 28.6657C3 29.0597 3.31885 29.3795 3.71243 29.3795V29.3795Z" fill="#FFFF00" stroke="#662D91" stroke-width="0.181935" stroke-miterlimit="10"/>
<path d="M19.3689 24.8556C19.3689 25.0389 19.2204 25.1874 19.0371 25.1874H17.4813C17.298 25.1874 17.1495 25.0389 17.1495 24.8556V24.8496C17.1495 24.6662 17.298 24.5177 17.4813 24.5177H19.0371C19.2204 24.5177 19.3689 24.6662 19.3689 24.8496V24.8556ZM18.1594 19.2318L13.9624 19.2277C13.5683 19.2277 13.2486 19.5465 13.2486 19.9401L13.2397 28.6753C13.2397 29.0693 13.5586 29.3891 13.9522 29.3891L16.5642 29.3919C16.9583 29.3919 17.2781 29.0731 17.2781 28.6795L17.2799 26.6104C17.6628 26.6072 18.2026 26.6197 18.6027 26.6197C21.0063 26.622 21.8923 24.6138 21.8942 23.0692C21.897 20.1276 20.1292 19.2337 18.1594 19.2318V19.2318Z" fill="#FFFF00" stroke="#662D91" stroke-width="0.181935" stroke-miterlimit="10"/>
<path d="M43.9329 26.0952L42.8701 26.0971L43.1931 19.9312C43.2363 19.1056 42.1424 18.847 41.7641 19.5822C41.1816 20.7156 40.2896 23.0942 39.8631 24.2833C39.7053 24.7237 39.3122 24.6736 39.2073 24.2494C38.9228 23.0993 38.2062 20.7527 37.7963 19.5859C37.5754 18.9566 36.7075 18.9608 36.4759 19.5859C36.0424 20.7564 35.3467 23.0413 35.0752 24.2183C34.9791 24.6351 34.5619 24.662 34.4194 24.2522C34.0017 23.0506 33.0874 20.7003 32.5318 19.5817C32.1642 18.8415 31.0596 19.1056 31.1028 19.9308L31.5391 28.2636C31.5725 28.905 32.1025 29.4081 32.7449 29.4081H40.8619L40.492 31.7231C40.3745 32.4597 41.3376 32.8431 41.7585 32.2276L44.8125 27.7605C45.2961 27.0532 44.7883 26.0934 43.9316 26.0948L43.9329 26.0952Z" fill="#FFFF00" stroke="#662D91" stroke-width="0.181935" stroke-miterlimit="10"/>
</g>
<defs>
<clipPath id="clip0_4665_2657">
<rect width="48" height="48" fill="white"/>
</clipPath>
</defs>
</svg>
