<svg width="48" height="48" viewBox="0 0 48 48" fill="none" xmlns="http://www.w3.org/2000/svg">
<g clip-path="url(#clip0_5510_646)">
<path d="M32 0H16C7.16344 0 0 7.16344 0 16V32C0 40.8366 7.16344 48 16 48H32C40.8366 48 48 40.8366 48 32V16C48 7.16344 40.8366 0 32 0Z" fill="#FFDF00"/>
<path d="M10.6878 24.2796C10.6878 25.108 10.5268 25.8068 10.2046 26.376C9.88249 26.9427 9.44771 27.3727 8.90031 27.6657C8.35291 27.9564 7.74253 28.1017 7.06918 28.1017C6.39098 28.1017 5.77819 27.9552 5.23078 27.6621C4.6858 27.3666 4.25224 26.9355 3.9301 26.3687C3.61038 25.7995 3.45052 25.1031 3.45052 24.2796C3.45052 23.4512 3.61038 22.7537 3.9301 22.1869C4.25224 21.6177 4.6858 21.1878 5.23078 20.8971C5.77819 20.604 6.39098 20.4575 7.06918 20.4575C7.74253 20.4575 8.35291 20.604 8.90031 20.8971C9.44771 21.1878 9.88249 21.6177 10.2046 22.1869C10.5268 22.7537 10.6878 23.4512 10.6878 24.2796ZM8.60966 24.2796C8.60966 23.8339 8.55031 23.4585 8.43163 23.1533C8.31537 22.8457 8.14219 22.6132 7.91208 22.4557C7.6844 22.2959 7.40344 22.2159 7.06918 22.2159C6.73493 22.2159 6.45275 22.2959 6.22265 22.4557C5.99497 22.6132 5.82178 22.8457 5.7031 23.1533C5.58684 23.4585 5.52871 23.8339 5.52871 24.2796C5.52871 24.7253 5.58684 25.1019 5.7031 25.4095C5.82178 25.7147 5.99497 25.9472 6.22265 26.1071C6.45275 26.2645 6.73493 26.3433 7.06918 26.3433C7.40344 26.3433 7.6844 26.2645 7.91208 26.1071C8.14219 25.9472 8.31537 25.7147 8.43163 25.4095C8.55031 25.1019 8.60966 24.7253 8.60966 24.2796ZM16.0259 20.5592H18.046V25.326C18.046 25.8927 17.9103 26.3832 17.6391 26.7974C17.3702 27.2092 16.9948 27.5277 16.5128 27.7529C16.0308 27.9758 15.4713 28.0872 14.8342 28.0872C14.1924 28.0872 13.6304 27.9758 13.1484 27.7529C12.6664 27.5277 12.291 27.2092 12.0221 26.7974C11.7557 26.3832 11.6225 25.8927 11.6225 25.326V20.5592H13.6425V25.1516C13.6425 25.3817 13.6934 25.5876 13.7951 25.7692C13.8969 25.9485 14.0374 26.0889 14.2166 26.1907C14.3982 26.2924 14.6041 26.3433 14.8342 26.3433C15.0668 26.3433 15.2726 26.2924 15.4519 26.1907C15.6311 26.0889 15.7716 25.9485 15.8733 25.7692C15.9751 25.5876 16.0259 25.3817 16.0259 25.1516V20.5592ZM18.8026 22.1869V20.5592H25.2697V22.1869H23.0316V28H21.0406V22.1869H18.8026ZM26.0299 28V20.5592H28.05V26.3723H31.0583V28H26.0299ZM31.8748 28V20.5592H37.2374V22.1869H33.8949V23.4658H36.9613V25.0934H33.8949V26.3723H37.2229V28H31.8748ZM38.0358 22.1869V20.5592L44.5029 20.5592V22.1869L42.2649 22.1869V28H40.2739V22.1869H38.0358Z" fill="black"/>
</g>
<defs>
<clipPath id="clip0_5510_646">
<rect width="48" height="48" fill="white"/>
</clipPath>
</defs>
</svg>
