<svg width="20" height="20" viewBox="0 0 20 20" fill="none" xmlns="http://www.w3.org/2000/svg">
<g clip-path="url(#clip0)">
<path fill-rule="evenodd" clip-rule="evenodd" d="M15.0053 2.10675C14.5738 1.35942 13.6182 1.10336 12.8709 1.53483L3.9283 6.69782C4.16481 6.61029 4.42059 6.56247 4.68753 6.56247H15.059C14.594 5.60919 14.7901 4.48451 15.4973 3.74329C15.6778 3.55407 15.7094 3.32633 15.6303 3.18928L15.0053 2.10675ZM15.784 6.56247C15.7483 6.51264 15.7147 6.46055 15.6834 6.40623C15.2576 5.6688 15.3895 4.7616 15.9495 4.17473C16.2455 3.86446 16.4376 3.33759 16.1715 2.87678L15.5465 1.79425C14.9425 0.747985 13.6046 0.389507 12.5584 0.993569L1.19177 7.55607C0.145506 8.16013 -0.21297 9.49798 0.391091 10.5442L1.01609 11.6268C1.28214 12.0876 1.83447 12.1847 2.25118 12.0834C3.03939 11.892 3.89102 12.2313 4.31677 12.9687C4.42494 13.1561 4.49692 13.3538 4.53522 13.5541C4.31611 14.0623 3.87835 14.4545 3.34128 14.612C2.92974 14.7327 2.50003 15.0929 2.50003 15.625V16.875C2.50003 18.0831 3.4794 19.0625 4.68753 19.0625H17.8125C19.0206 19.0625 20 18.0831 20 16.875V15.625C20 15.0929 19.5702 14.7326 19.1587 14.612C18.3804 14.3837 17.8125 13.664 17.8125 12.8125C17.8125 11.961 18.3804 11.2413 19.1587 11.013C19.5702 10.8923 20 10.5321 20 9.99997V8.74997C20 7.54185 19.0206 6.56247 17.8125 6.56247H15.784ZM4.62036 12.3134C4.44838 11.6891 3.96171 11.195 3.34132 11.013C2.92983 10.8923 2.50003 10.5321 2.50003 9.99997V8.74997C2.50003 8.07198 2.80847 7.46604 3.29269 7.06479L1.50427 8.09734C0.756939 8.52881 0.500884 9.48442 0.932357 10.2317L1.55736 11.3143C1.63648 11.4513 1.84951 11.5378 2.10365 11.4761C3.02317 11.2527 4.00801 11.5706 4.62036 12.3134ZM4.68753 7.18747C3.82458 7.18747 3.12503 7.88703 3.12503 8.74997V9.99997C3.12503 10.1582 3.26627 10.3396 3.51723 10.4133C4.55454 10.7175 5.31253 11.6761 5.31253 12.8125C5.31253 13.1246 5.25516 13.4241 5.15012 13.7005C4.87403 14.4269 4.26956 14.991 3.51716 15.2117C3.26624 15.2853 3.12503 15.4667 3.12503 15.625V16.875C3.12503 17.7379 3.82458 18.4375 4.68753 18.4375H7.50005V16.875C7.50005 16.7024 7.63996 16.5625 7.81255 16.5625C7.98514 16.5625 8.12505 16.7024 8.12505 16.875V18.4375H17.8125C18.6755 18.4375 19.375 17.7379 19.375 16.875V15.625C19.375 15.4667 19.2338 15.2853 18.9828 15.2117C17.9455 14.9074 17.1875 13.9489 17.1875 12.8125C17.1875 11.6761 17.9455 10.7175 18.9828 10.4133C19.2338 10.3396 19.375 10.1582 19.375 9.99997V8.74997C19.375 7.88703 18.6755 7.18747 17.8125 7.18747H8.12505V8.74997C8.12505 8.92256 7.98514 9.06247 7.81255 9.06247C7.63996 9.06247 7.50005 8.92256 7.50005 8.74997V7.18747H4.68753ZM7.81255 9.99997C7.98514 9.99997 8.12505 10.1399 8.12505 10.3125V11.875C8.12505 12.0476 7.98514 12.1875 7.81255 12.1875C7.63996 12.1875 7.50005 12.0476 7.50005 11.875V10.3125C7.50005 10.1399 7.63996 9.99997 7.81255 9.99997ZM7.81255 13.4375C7.98514 13.4375 8.12505 13.5774 8.12505 13.75V15.1605C8.12505 15.3331 7.98514 15.473 7.81255 15.473C7.63996 15.473 7.50005 15.3331 7.50005 15.1605V13.75C7.50005 13.5774 7.63996 13.4375 7.81255 13.4375Z" fill="black"/>
</g>
<defs>
<clipPath id="clip0">
<rect width="20" height="20" fill="white"/>
</clipPath>
</defs>
</svg>
