<svg width="20" height="20" viewBox="0 0 20 20" fill="none" xmlns="http://www.w3.org/2000/svg">
<path fill-rule="evenodd" clip-rule="evenodd" d="M0 3.125C0 2.26206 0.699555 1.5625 1.5625 1.5625H10.1217C10.2798 1.5625 10.4369 1.58648 10.5878 1.63363L12.8602 2.34375H14.614C15.1566 2.34375 15.6603 2.62524 15.9447 3.08735L16.7371 4.375H19.6875C19.8601 4.375 20 4.51491 20 4.6875C20 4.86009 19.8601 5 19.6875 5H16.7371L15.9447 6.28765C15.6603 6.74976 15.1566 7.03125 14.614 7.03125H12.8602L10.5878 7.74137C10.4369 7.78852 10.2798 7.8125 10.1217 7.8125H7.76912L6.92537 13.4375H8.75C9.26777 13.4375 9.6875 13.8572 9.6875 14.375V17.5C9.6875 18.0178 9.26777 18.4375 8.75 18.4375H1.875C1.35723 18.4375 0.9375 18.0178 0.9375 17.5V14.375C0.9375 13.8572 1.35723 13.4375 1.875 13.4375H2.54338L3.38713 7.8125H1.5625C0.699555 7.8125 0 7.11294 0 6.25V3.125ZM4.01912 7.8125L3.17537 13.4375H6.29338L7.13713 7.8125H4.01912ZM6.55772 14.0625H2.81805C2.81462 14.0626 2.81118 14.0626 2.80772 14.0625H1.875C1.70241 14.0625 1.5625 14.2024 1.5625 14.375V17.5C1.5625 17.6726 1.70241 17.8125 1.875 17.8125H8.75C8.92259 17.8125 9.0625 17.6726 9.0625 17.5V14.375C9.0625 14.2024 8.92259 14.0625 8.75 14.0625H6.56805C6.56462 14.0626 6.56118 14.0626 6.55772 14.0625ZM13.125 6.40625H14.614C14.9396 6.40625 15.2418 6.23735 15.4124 5.96009L16.1956 4.6875L15.4124 3.41491C15.2418 3.13765 14.9396 2.96875 14.614 2.96875H13.125V6.40625ZM12.5 2.886L10.4014 2.23018C10.3109 2.20189 10.2166 2.1875 10.1217 2.1875H1.5625C1.04473 2.1875 0.625 2.60723 0.625 3.125V6.25C0.625 6.76777 1.04473 7.1875 1.5625 7.1875H10.1217C10.2166 7.1875 10.3109 7.17311 10.4014 7.14482L12.5 6.489V2.886Z" fill="black"/>
</svg>
