<svg width="32" height="32" viewBox="0 0 32 32" fill="none" xmlns="http://www.w3.org/2000/svg">
<path fill-rule="evenodd" clip-rule="evenodd" d="M7.99994 2.5C7.99994 1.11929 9.11923 0 10.4999 0H21.4999C22.8807 0 23.9999 1.11929 23.9999 2.5V18C23.9999 18.2761 24.2238 18.5 24.4999 18.5H28.667C30.0819 18.5 30.71 20.2794 29.6086 21.1676L16.9629 31.3657C16.399 31.8205 15.5906 31.8073 15.0419 31.3342L3.21207 21.1361C2.15889 20.2282 2.80097 18.5 4.19148 18.5H7.49994C7.77609 18.5 7.99994 18.2761 7.99994 18V2.5ZM10.4999 1C9.67152 1 8.99994 1.67157 8.99994 2.5V18C8.99994 18.8284 8.32837 19.5 7.49994 19.5H4.19148C3.72798 19.5 3.51395 20.0761 3.86501 20.3787L15.6948 30.5768C15.8777 30.7345 16.1472 30.7389 16.3352 30.5873L28.9808 20.3892C29.348 20.0931 29.1386 19.5 28.667 19.5H24.4999C23.6715 19.5 22.9999 18.8284 22.9999 18V2.5C22.9999 1.67157 22.3284 1 21.4999 1H10.4999ZM13.8333 6.73729C13.833 7.01323 13.6093 7.23684 13.3333 7.23684C13.0571 7.23684 12.8333 7.01298 12.8333 6.73684H13.3333C12.8333 6.73684 12.8333 6.7371 12.8333 6.73684L12.8333 6.73576L12.8333 6.73443L12.8333 6.73099L12.8334 6.72113C12.8335 6.71326 12.8338 6.70278 12.8342 6.68988C12.835 6.66408 12.8366 6.62851 12.8397 6.58453C12.8458 6.49674 12.8578 6.37449 12.8814 6.22906C12.9283 5.94063 13.0229 5.54815 13.2171 5.14944C13.4122 4.74905 13.7132 4.33156 14.1759 4.01498C14.6424 3.69581 15.2431 3.5 15.9999 3.5C17.4477 3.5 18.4266 3.96861 19.0383 4.64847C19.6377 5.31467 19.8333 6.127 19.8333 6.73684C19.8333 7.1987 19.6659 7.62905 19.4524 7.99412C19.2376 8.36167 18.9583 8.6934 18.6914 8.96735C18.6893 8.96947 18.6873 8.97158 18.6852 8.97368H19.9999C20.2761 8.97368 20.4999 9.19754 20.4999 9.47368C20.4999 9.74983 20.2761 9.97368 19.9999 9.97368H11.9999C11.7238 9.97368 11.4999 9.74983 11.4999 9.47368C11.4999 9.19754 11.7238 8.97368 11.9999 8.97368H17.1712C17.2157 8.94028 17.2709 8.89797 17.3338 8.84772C17.5102 8.70697 17.7436 8.50716 17.9752 8.26949C18.2082 8.03029 18.429 7.76333 18.5891 7.48943C18.7507 7.21305 18.8333 6.95919 18.8333 6.73684C18.8333 6.31863 18.6955 5.76254 18.2949 5.31733C17.9066 4.88579 17.2189 4.5 15.9999 4.5C15.4235 4.5 15.0241 4.64629 14.7406 4.84029C14.4533 5.03686 14.2544 5.30358 14.1161 5.58741C13.977 5.8729 13.905 6.16464 13.8685 6.38936C13.8504 6.50051 13.8416 6.59208 13.8373 6.65396C13.8351 6.68481 13.8341 6.70804 13.8337 6.72234L13.8333 6.73729ZM11.4999 11.5263C11.4999 11.2502 11.7238 11.0263 11.9999 11.0263H19.9999C20.2761 11.0263 20.4999 11.2502 20.4999 11.5263C20.4999 11.8025 20.2761 12.0263 19.9999 12.0263H14.8287C14.7842 12.0597 14.729 12.102 14.666 12.1523C14.4897 12.293 14.2563 12.4928 14.0247 12.7305C13.7917 12.9697 13.5709 13.2367 13.4108 13.5106C13.2492 13.7869 13.1666 14.0408 13.1666 14.2632C13.1666 14.6814 13.3044 15.2375 13.705 15.6827C14.0933 16.1142 14.781 16.5 15.9999 16.5C16.5764 16.5 16.9757 16.3537 17.2593 16.1597C17.5466 15.9631 17.7455 15.6964 17.8838 15.4126C18.0229 15.1271 18.0949 14.8354 18.1314 14.6106C18.1495 14.4995 18.1583 14.4079 18.1626 14.346C18.1648 14.3152 18.1658 14.292 18.1662 14.2777L18.1666 14.2632C18.1668 13.9872 18.3906 13.7632 18.6666 13.7632C18.9428 13.7632 19.1666 13.987 19.1666 14.2632H18.6666C19.1666 14.2632 19.1666 14.2629 19.1666 14.2632L19.1666 14.2656L19.1666 14.269L19.1665 14.2789C19.1663 14.2867 19.1661 14.2972 19.1657 14.3101C19.1649 14.3359 19.1633 14.3715 19.1602 14.4155C19.1541 14.5033 19.1421 14.6255 19.1185 14.7709C19.0716 15.0594 18.977 15.4518 18.7828 15.8506C18.5877 16.2509 18.2867 16.6684 17.824 16.985C17.3575 17.3042 16.7568 17.5 15.9999 17.5C14.5522 17.5 13.5733 17.0314 12.9616 16.3515C12.3622 15.6853 12.1666 14.873 12.1666 14.2632C12.1666 13.8013 12.334 13.3709 12.5475 13.0059C12.7623 12.6383 13.0416 12.3066 13.3085 12.0326C13.3106 12.0305 13.3126 12.0284 13.3147 12.0263H11.9999C11.7238 12.0263 11.4999 11.8025 11.4999 11.5263Z" fill="black"/>
</svg>
