<svg width="32" height="32" viewBox="0 0 32 32" fill="none" xmlns="http://www.w3.org/2000/svg">
<path d="M15.9251 7.91856C17.6002 8.06048 19.2753 7.06705 20.3223 5.80751C21.3518 4.5125 22.0323 2.77399 21.8578 1C20.3747 1.07096 18.5425 1.99343 17.4955 3.28845C16.5358 4.40606 15.7157 6.21553 15.9251 7.91856Z" fill="#FF671F"/>
<path d="M16.1868 9.65707C17.3385 9.65707 19.4149 8.1137 21.8404 8.25562C22.7827 8.32658 25.5047 8.61042 27.2497 11.2359C27.1101 11.3424 24.0216 13.1518 24.0565 16.9482C24.0914 21.4896 27.9651 22.9975 28 23.033C27.9651 23.1394 27.3893 25.1795 25.9759 27.2728C24.737 29.1178 23.4632 30.9272 21.4391 30.9627C19.4847 30.9982 18.8391 29.7741 16.5882 29.7741C14.3546 29.7741 13.6218 30.9272 11.7722 30.9982C9.81783 31.0691 8.33464 29.0468 7.09574 27.2018C4.56559 23.4765 2.62872 16.6998 5.24611 12.1229C6.51991 9.83447 8.84067 8.39754 11.3359 8.36206C13.2553 8.32658 15.0177 9.65707 16.1868 9.65707Z" fill="#FF671F"/>
</svg>
